<svg t="1721288189193" class="icon" viewBox="0 0 1026 1024" version="1.1" xmlns="http://www.w3.org/2000/svg" p-id="1660" width="200" height="200"><path d="M1000.919344 242.130117l-219.112033-219.112033a76.689211 76.689211 0 0 0-109.556016 0L73.710259 624.480614a51.126141 51.126141 0 0 0 0 73.037345l255.630704 255.630704a51.126141 51.126141 0 0 0 73.037345 0L1000.919344 350.95576a76.689211 76.689211 0 0 0 0-108.825643z" fill="#F9D74A" p-id="1661"></path><path d="M506.091337 192.318648l72.30697-72.306971 326.111743 326.111743-72.306971 72.30697z" fill="#C8C8C8" p-id="1662"></path><path d="M402.378308 879.746132l-255.630705-255.630704a51.126141 51.126141 0 0 0-86.184066 27.023817L3.594408 961.913145a51.126141 51.126141 0 0 0 50.030581 59.890622h8.764481l311.504273-55.143195a51.126141 51.126141 0 0 0 28.484565-86.91444z" fill="#EDCABB" p-id="1663"></path><path d="M110.228931 992.954016L31.713786 914.438871a12.781535 12.781535 0 0 0-21.546017 6.938548L0.672914 972.138373A44.187593 44.187593 0 0 0 44.860508 1023.994887h7.668921l50.030581-8.764481a12.781535 12.781535 0 0 0 7.668921-22.27639z" fill="#4D4D4D" p-id="1664"></path><path d="M571.824946 126.00074L673.712042 24.113644a76.689211 76.689211 0 0 1 109.556016 0l219.112033 219.112033a76.689211 76.689211 0 0 1 0 109.556017l-101.887095 101.887095" fill="#EC5044" p-id="1665"></path></svg>